<?xml version="1.0" encoding="UTF-8"?>
<svg width="718px" height="718px" viewBox="0 0 718 718" version="1.1" xmlns="http://www.w3.org/2000/svg" xmlns:xlink="http://www.w3.org/1999/xlink">
    <!-- Generator: Sketch 52.5 (67469) - http://www.bohemiancoding.com/sketch -->
    <title>Group 2</title>
    <desc>Created with Sketch.</desc>
    <defs>
        <circle id="path-1" cx="358" cy="358" r="358"></circle>
    </defs>
    <g id="Page-1" stroke="none" stroke-width="1" fill="none" fill-rule="evenodd">
        <g id="Group-2" transform="translate(1.000000, 1.000000)">
            <mask id="mask-2" fill="white">
                <use xlink:href="#path-1"></use>
            </mask>
            <use id="Oval" stroke="#D3D3D3" stroke-width="2" fill="#F5F5F5" fill-rule="nonzero" xlink:href="#path-1"></use>
            <g id="alien-(4)" mask="url(#mask-2)">
                <g transform="translate(107.000000, 88.000000)">
                    <polygon id="Path" fill="#F98084" points="99.5856596 541.313441 67.9656633 562.587623 45 605.824124 72.7778417 647 430.222158 647 458 605.824124 435.034337 562.587623 403.41434 541.313441 251.5 507"></polygon>
                    <g id="Group" stroke-width="1" fill="none" transform="translate(0.000000, 541.000000)">
                        <path d="M72.9021407,106 C72.9021407,41.5280238 99.6913141,0.374785714 99.6913141,0.374785714 C32.3727261,0.374785714 0.774721106,69.6483095 0.774721106,106 L72.9021407,106 Z" id="Path" fill="#DC5A64"></path>
                        <path d="M430.097859,106 C430.097859,41.5280238 403.308686,0.374785714 403.308686,0.374785714 C470.627274,0.374785714 502.225279,69.6483095 502.225279,106 L430.097859,106 Z" id="Path" fill="#DC5A64"></path>
                        <ellipse id="Oval" fill="#DC5A64" cx="345.553417" cy="55.4178095" rx="21.6947186" ry="21.6618571"></ellipse>
                    </g>
                    <path d="M108.025558,508 L99.7538591,494.295976 C52.0210512,415.205989 21.7702294,342.050407 9.84271206,276.860487 C-2.40566843,209.925153 4.6242653,152.485879 30.7379742,106.140098 C50.6289601,70.8346882 80.6536618,43.7365149 119.974551,25.5943353 C156.779065,8.60944063 201.031645,0 251.498105,0 C301.964566,0 346.217146,8.60944063 383.025449,25.5930705 C422.346338,43.7339853 452.369777,70.8346882 472.262026,106.138833 C498.375735,152.485879 505.405668,209.923888 493.157288,276.859222 C481.228507,342.049143 450.978949,415.204725 403.246141,494.294712 L394.973178,507.998735 L108.025558,507.998735 L108.025558,508 Z" id="Path" fill="#EFEDEE"></path>
                    <path d="M30.673908,276.859222 C18.4213007,209.923888 25.4536604,152.484615 51.5763809,106.138833 C71.474231,70.8334234 101.509294,43.7352501 140.843752,25.5930705 C175.10834,9.78949177 215.829052,1.24582033 262,0.134067975 C258.557745,0.0518564809 255.090217,0 251.586042,0 C201.102166,0 156.834315,8.60944063 120.013309,25.5930705 C80.6801143,43.7339853 50.646315,70.8346882 30.7472012,106.140098 C4.62448073,152.487144 -2.40787897,209.925153 9.84472833,276.860487 C21.7788892,342.050407 52.0388865,415.205989 99.7869029,494.295976 L108.061457,508 L128.890636,508 L120.616083,494.295976 C72.8693299,415.205989 42.6080688,342.050407 30.673908,276.859222 Z" id="Path" fill="#D4D2D3"></path>
                    <path d="M134.878269,472.633275 C-28.4981368,202.289794 42.9902648,41 251.5,41 C460.009735,41 531.498137,202.289794 368.121731,472.633275 L251.5,507 L134.878269,472.633275 Z" id="Path" fill="#2FC8B4"></path>
                    <path d="M173.940309,472.633275 C15.807362,210.919096 77.7467702,51.4110553 271,41.4931752 C264.627139,41.1656563 258.113922,41 251.460352,41 C42.9906507,41 -28.484025,202.289794 134.861012,472.633275 L251.460352,507 L271,501.242495 L173.940309,472.633275 Z" id="Path" fill="#00AE95"></path>
                    <path d="M148,332 C142.47709,332 138,327.581388 138,322.130617 L138,301.869383 C138,296.418612 142.47709,292 148,292 C153.522909,292 158,296.418612 158,301.869383 L158,322.130617 C158.001294,327.581388 153.522909,332 148,332 Z" id="Path" fill="#3A484A"></path>
                    <path d="M162.200194,362 L134.799806,362 C129.387462,362 125,357.52291 125,352 C125,346.47709 129.387462,342 134.799806,342 L162.200194,342 C167.612538,342 172,346.47709 172,352 C172,357.52291 167.612538,362 162.200194,362 Z" id="Path" fill="#DC5A64"></path>
                    <path d="M355,332 C349.47709,332 345,327.581388 345,322.130617 L345,301.869383 C345,296.418612 349.47709,292 355,292 C360.52291,292 365,296.418612 365,301.869383 L365,322.130617 C365,327.581388 360.52291,332 355,332 Z" id="Path" fill="#3A484A"></path>
                    <path d="M368.200194,362 L340.799806,362 C335.387462,362 331,357.52291 331,352 C331,346.47709 335.387462,342 340.799806,342 L368.200194,342 C373.612538,342 378,346.47709 378,352 C378,357.52291 373.612538,362 368.200194,362 Z" id="Path" fill="#DC5A64"></path>
                    <path d="M251.000474,360 C241.068201,360 231.735678,355.763106 225.395635,348.374424 C221.872413,344.267896 222.282703,338.029502 226.314082,334.440604 C230.345461,330.851706 236.469694,331.269644 239.992915,335.376171 C242.650388,338.47428 246.662947,340.250836 250.99922,340.250836 C255.335493,340.250836 259.348051,338.47428 262.006779,335.376171 C265.528746,331.269644 271.654233,330.850428 275.685612,334.441882 C279.716991,338.03078 280.128535,344.269175 276.602804,348.375702 C270.264016,355.763106 260.931493,360 251.000474,360 Z" id="Path" fill="#3A484A"></path>
                    <path d="M367.687418,472 L134.313847,472 C114.810055,472 99,487.860872 99,507.427355 L99,541 L403,541 L403,507.427355 C403.001265,487.860872 387.19121,472 367.687418,472 Z" id="Path" fill="#937FE6"></path>
                    <path d="M174,472 L135.113888,472 C115.720533,472 100,487.860872 100,507.427355 L100,541 L138.886112,541 L138.886112,507.427355 C138.886112,487.860872 154.606645,472 174,472 Z" id="Path" fill="#8271CC"></path>
                    <g id="Group" stroke-width="1" fill="none" transform="translate(146.000000, 495.000000)">
                        <ellipse id="Oval" fill="#EFEDEE" cx="199.625762" cy="11.6525" rx="11.66" ry="11.55"></ellipse>
                        <ellipse id="Oval" fill="#EFEDEE" cx="137.213214" cy="11.6525" rx="11.66" ry="11.55"></ellipse>
                        <ellipse id="Oval" fill="#EFEDEE" cx="74.7867857" cy="11.6525" rx="11.66" ry="11.55"></ellipse>
                        <ellipse id="Oval" fill="#EFEDEE" cx="12.3742381" cy="11.6525" rx="11.66" ry="11.55"></ellipse>
                    </g>
                </g>
            </g>
        </g>
    </g>
</svg>