<?xml version="1.0" encoding="UTF-8"?>
<svg width="480px" height="480px" viewBox="0 0 480 480" version="1.1" xmlns="http://www.w3.org/2000/svg" xmlns:xlink="http://www.w3.org/1999/xlink">
    <!-- Generator: Sketch 53 (72520) - https://sketchapp.com -->
    <title>Group</title>
    <desc>Created with Sketch.</desc>
    <defs>
        <circle id="path-1" cx="234" cy="234" r="234"></circle>
        <filter x="-2.0%" y="-1.4%" width="104.1%" height="104.1%" filterUnits="objectBoundingBox" id="filter-3">
            <feMorphology radius="0.5" operator="dilate" in="SourceAlpha" result="shadowSpreadOuter1"></feMorphology>
            <feOffset dx="0" dy="3" in="shadowSpreadOuter1" result="shadowOffsetOuter1"></feOffset>
            <feGaussianBlur stdDeviation="2.5" in="shadowOffsetOuter1" result="shadowBlurOuter1"></feGaussianBlur>
            <feComposite in="shadowBlurOuter1" in2="SourceAlpha" operator="out" result="shadowBlurOuter1"></feComposite>
            <feColorMatrix values="0 0 0 0 0   0 0 0 0 0   0 0 0 0 0  0 0 0 0.4 0" type="matrix" in="shadowBlurOuter1"></feColorMatrix>
        </filter>
    </defs>
    <g id="Welcome" stroke="none" stroke-width="1" fill="none" fill-rule="evenodd">
        <g id="Desktop-HD" transform="translate(-420.000000, -245.000000)">
            <g id="Group" transform="translate(426.000000, 248.000000)">
                <mask id="mask-2" fill="white">
                    <use xlink:href="#path-1"></use>
                </mask>
                <g id="Oval">
                    <use fill="black" fill-opacity="1" filter="url(#filter-3)" xlink:href="#path-1"></use>
                    <use stroke="#979797" stroke-width="1" fill="#FFFFFF" fill-rule="evenodd" xlink:href="#path-1"></use>
                </g>
                <rect id="Rectangle" fill-opacity="0.5" fill="#D8D8D8" mask="url(#mask-2)" x="235" y="-33" width="266" height="566"></rect>
                <g id="cassette-tape" mask="url(#mask-2)" fill-rule="nonzero">
                    <g transform="translate(76.000000, 130.000000)">
                        <path d="M286.490723,208 L29.5116881,208 C13.2381899,208 0,194.764688 0,178.497138 L0,29.5052725 C0,13.235312 13.2381899,0 29.5116881,0 L286.490723,0 C302.76181,0 316,13.235312 316,29.5052725 L316,178.497138 C316,194.764688 302.76181,208 286.490723,208 Z" id="Path" fill="#3A4052"></path>
                        <path d="M29.5116881,0 C13.2381899,0 0,13.235312 0,29.5052725 L0,178.497138 C0,194.764688 13.2381899,208 29.5116881,208 L158,208 L158,0 L29.5116881,0 Z" id="Path" fill="#494F60"></path>
                        <path d="M29.8437638,19 C23.8642441,19 19,23.8669437 19,29.8497818 L19,179.150219 C19,185.133057 23.8642441,190 29.8437638,190 L287.156236,190 C293.133342,190 298,185.133057 298,179.150219 L298,29.8497818 C298,23.8669437 293.135756,19 287.156236,19 L29.8437638,19 Z" id="Path" fill="#E86752"></path>
                        <path d="M29.8049907,19 C23.8468515,19 19,23.8669437 19,29.8497818 L19,179.150219 C19,185.133057 23.8468515,190 29.8049907,190 L158,190 L158,19 L29.8049907,19 Z" id="Path" fill="#ED8575"></path>
                        <path d="M231.838579,170.867277 L222.647544,153.056628 C221.045547,149.949135 217.855986,148 214.375372,148 L101.624628,148 C98.1440138,148 94.954453,149.949135 93.3524559,153.056628 L84.1614208,170.867277 L81.8546415,175.333843 L72.0598506,194.317359 C72.0598506,194.319777 72.0574454,194.319777 72.0574454,194.322196 L65,208 L251,208 L231.838579,170.867277 Z" id="Path" fill="#3A4052"></path>
                        <path d="M101.624628,148 C98.1440138,148 94.954453,149.949135 93.3524559,153.056628 L84.1614208,170.869695 L81.8546415,175.336262 L72.0598506,194.317359 C72.0598506,194.319777 72.0574454,194.322196 72.0574454,194.322196 L65,208 L158,208 L158,148 L101.624628,148 Z" id="Path" fill="#494F60"></path>
                        <path d="M231.668652,124 L84.3313476,124 C62.0920268,124 44,105.832318 44,83.5 C44,61.167682 62.0920268,43 84.3313476,43 L231.668652,43 C253.907973,43 272,61.167682 272,83.5 C272,105.832318 253.907973,124 231.668652,124 Z" id="Path" fill="#3A4052"></path>
                        <path d="M84.3313476,43 C62.0920268,43 44,61.167682 44,83.5 C44,105.832318 62.0920268,124 84.3313476,124 L158,124 L158,43 L84.3313476,43 Z" id="Path" fill="#494F60"></path>
                        <path d="M171.67047,93 L144.327122,93 C139.174815,93 135,88.7459025 135,83.4987738 C135,78.2540969 139.174815,74 144.327122,74 L171.67047,74 C176.822779,74 181,78.2540969 181,83.4987738 C181,88.7459025 176.822779,93 171.67047,93 Z" id="Path" fill="#F2F0E7"></path>
                        <path d="M84.5,124 C62.1676817,124 44,105.832318 44,83.5 C44,61.167682 62.1676817,43 84.5,43 C106.832318,43 125,61.167682 125,83.5 C125,105.832318 106.832318,124 84.5,124 Z M84.5,61.7408635 C72.5018813,61.7408635 62.7408638,71.5018811 62.7408638,83.5 C62.7408638,95.4981189 72.5018813,105.261555 84.5,105.261555 C96.4981187,105.261555 106.261555,95.4981189 106.261555,83.5 C106.261555,71.5018811 96.4981187,61.7408635 84.5,61.7408635 Z" id="Shape" fill="#FFFDF1"></path>
                        <path d="M231.5,124 C209.167682,124 191,105.832318 191,83.5 C191,61.167682 209.167682,43 231.5,43 C253.832318,43 272,61.167682 272,83.5 C272,105.832318 253.832318,124 231.5,124 Z M231.5,61.7408635 C219.501881,61.7408635 209.740864,71.5018811 209.740864,83.5 C209.740864,95.4981189 219.501881,105.261555 231.5,105.261555 C243.498119,105.261555 253.259136,95.4981189 253.259136,83.5 C253.259136,71.5018811 243.498119,61.7408635 231.5,61.7408635 Z" id="Shape" fill="#F2F0E7"></path>
                        <path d="M144.159334,74 C139.099712,74 135,78.2540969 135,83.4987738 C135,88.7459025 139.099712,93 144.159334,93 L158,93 L158,74 L144.159334,74 Z" id="Path" fill="#FFFDF1"></path>
                    </g>
                </g>
            </g>
        </g>
    </g>
</svg>