<?xml version="1.0" encoding="UTF-8"?>
<svg width="45px" height="45px" viewBox="0 0 45 45" version="1.1" xmlns="http://www.w3.org/2000/svg" xmlns:xlink="http://www.w3.org/1999/xlink">
    <!-- Generator: Sketch 52.4 (67378) - http://www.bohemiancoding.com/sketch -->
    <title>icon</title>
    <desc>Created with Sketch.</desc>
    <defs>
        <circle id="path-1" cx="22.5" cy="22.5" r="22.5"></circle>
    </defs>
    <g id="Welcome" stroke="none" stroke-width="1" fill="none" fill-rule="evenodd">
        <g id="Desktop" transform="translate(-252.000000, -487.000000)">
            <g id="Logo-2" transform="translate(252.000000, 487.000000)">
                <g id="icon">
                    <mask id="mask-2" fill="white">
                        <use xlink:href="#path-1"></use>
                    </mask>
                    <use id="Oval" fill="#8ECACF" fill-rule="nonzero" xlink:href="#path-1"></use>
                    <g id="cap" mask="url(#mask-2)">
                        <g transform="translate(-15.000000, 1.000000)">
                            <path d="M43.3333333,16.5859873 L43.3333333,29.7240908 C41.4638465,31.2309257 39.4486649,32.4593369 37.3412363,33.4097223 C36.8170515,33.6463228 36.287324,33.8657958 35.7524496,34.0681411 C31.5748079,35.6462749 27.1014215,36.1744439 22.7266165,35.652648 C17.712813,35.0547734 12.8288679,33.0783222 8.66666667,29.7240908 L8.66666667,16.5859873 L43.3333333,16.5859873 Z" id="Path" fill="#545D68"></path>
                            <g id="Group" stroke-width="1" fill="none" transform="translate(8.666667, 16.853503)">
                                <path d="M8.61734006,0.0299522293 L8.61734006,17.6521099 C5.59188845,16.6431927 2.70529177,15.1018352 0.0999755859,13.0292197 L0.0999755859,0.0299522293 L8.61734006,0.0299522293 Z" id="Path" fill="#3B454F"></path>
                                <path d="M28.8338318,2.78319273 L28.8338318,16.6755096 C28.3085633,16.9096098 27.7777405,17.1267635 27.2417602,17.3269705 L27.2417602,2.78319273 C27.2417602,2.24838771 27.5984192,1.81408044 28.0379944,1.81408044 C28.4771729,1.81408044 28.8338318,2.24838771 28.8338318,2.78319273 Z" id="Path" fill="#3B454F"></path>
                                <polygon id="Path" fill="#3B454F" points="34.8383179 0.0295581462 34.8383179 1.08379782 17.4691467 7.66185905 0.0999755859 1.08379782 0.0999755859 0.0295581462"></polygon>
                            </g>
                            <polygon id="Path" fill="#545D68" points="52 9.83395838 52 13.4399269 26 23.2738854 0 13.4399269 0 9.83395838 26 0"></polygon>
                            <polygon id="Path" fill="#3B454F" points="26 19.685515 26 23.2738854 0 13.4868512 0 9.89808917"></polygon>
                            <path d="M39.2903765,38.2547771 C38.8523922,38.2547771 38.4974195,37.9007264 38.4974195,37.464366 L38.4974195,15.0622967 L25.6535728,9.26831174 C25.2547226,9.08833266 25.0776316,8.62007221 25.2582803,8.22230684 C25.4389289,7.82493518 25.9085365,7.64850062 26.3081774,7.8284797 L39.6176786,13.8327683 C39.9014987,13.9607621 40.0833333,14.2423485 40.0833333,14.5522905 L40.0833333,37.464366 C40.0833333,37.9007264 39.7283605,38.2547771 39.2903765,38.2547771 Z" id="Path" fill="#CE617A"></path>
                            <path d="M41.4375,39.8600631 C41.4375,41.0418477 40.4674659,42 39.2710262,42 C38.0742008,42 37.1041667,41.0418477 37.1041667,39.8600631 C37.1041667,38.6778975 38.0742008,37.7197452 39.2710262,37.7197452 C40.4674659,37.7197452 41.4375,38.6778975 41.4375,39.8600631 Z" id="Path" fill="#FCE393"></path>
                        </g>
                    </g>
                </g>
            </g>
        </g>
    </g>
</svg>